<mxfile host="app.diagrams.net" agent="Mozilla/5.0 (X11; CrOS x86_64 14541.0.0) AppleWebKit/537.36 (KHTML, like Gecko) Chrome/133.0.0.0 Safari/537.36" version="26.1.0">
  <diagram name="Page-1" id="RLwcNQWjKehI6hNhprLT">
    <mxGraphModel dx="952" dy="1800" grid="1" gridSize="10" guides="0" tooltips="1" connect="1" arrows="1" fold="1" page="1" pageScale="1" pageWidth="850" pageHeight="1100" math="0" shadow="0">
      <root>
        <mxCell id="0" />
        <mxCell id="1" parent="0" />
        <mxCell id="JPS8xZOk2hbWX5UggUwU-25" style="edgeStyle=orthogonalEdgeStyle;rounded=0;orthogonalLoop=1;jettySize=auto;html=1;exitX=0.5;exitY=1;exitDx=0;exitDy=0;entryX=0.5;entryY=0;entryDx=0;entryDy=0;strokeWidth=2;" parent="1" source="JPS8xZOk2hbWX5UggUwU-6" target="JPS8xZOk2hbWX5UggUwU-9" edge="1">
          <mxGeometry relative="1" as="geometry" />
        </mxCell>
        <mxCell id="JPS8xZOk2hbWX5UggUwU-28" value="&lt;font style=&quot;&quot;&gt;&lt;b style=&quot;&quot;&gt;&lt;span style=&quot;font-size: 12px;&quot;&gt;Click &lt;/span&gt;&lt;i style=&quot;&quot;&gt;&lt;font style=&quot;font-size: 15px;&quot;&gt;confirm&lt;/font&gt;&lt;/i&gt;&lt;span style=&quot;font-size: 12px;&quot;&gt; Button&lt;/span&gt;&lt;/b&gt;&lt;/font&gt;" style="edgeLabel;html=1;align=center;verticalAlign=middle;resizable=0;points=[];" parent="JPS8xZOk2hbWX5UggUwU-25" vertex="1" connectable="0">
          <mxGeometry x="-0.1082" y="-3" relative="1" as="geometry">
            <mxPoint as="offset" />
          </mxGeometry>
        </mxCell>
        <mxCell id="JPS8xZOk2hbWX5UggUwU-6" value="&lt;div style=&quot;line-height: 80%;&quot;&gt;&lt;b&gt;&lt;font style=&quot;font-size: 10px; line-height: 80%;&quot;&gt;&amp;lt;&amp;lt;form&amp;gt;&amp;gt;&lt;/font&gt;&lt;/b&gt;&lt;div&gt;&lt;font style=&quot;font-size: 10px; line-height: 80%;&quot;&gt;createSchedulePop-up&lt;/font&gt;&lt;/div&gt;&lt;div&gt;&lt;font style=&quot;font-size: 10px; line-height: 80%;&quot;&gt;&lt;br&gt;&lt;/font&gt;&lt;/div&gt;&lt;div&gt;&lt;font style=&quot;line-height: 80%;&quot;&gt;&lt;div style=&quot;font-size: 12px;&quot;&gt;&lt;b&gt;&lt;font style=&quot;font-size: 10px; line-height: 8px;&quot;&gt;&amp;lt;&amp;lt;Input text field&amp;gt;&amp;gt;&lt;/font&gt;&lt;/b&gt;&lt;/div&gt;&lt;div style=&quot;font-size: 12px;&quot;&gt;&lt;font style=&quot;font-size: 10px; line-height: 8px;&quot;&gt;title&lt;/font&gt;&lt;/div&gt;&lt;div style=&quot;font-size: 12px;&quot;&gt;&lt;font style=&quot;font-size: 10px;&quot;&gt;&lt;br&gt;&lt;/font&gt;&lt;/div&gt;&lt;div style=&quot;font-size: 12px;&quot;&gt;&lt;b&gt;&lt;font style=&quot;font-size: 10px; line-height: 8px;&quot;&gt;&amp;lt;&amp;lt;date-picker&amp;gt;&amp;gt;&lt;/font&gt;&lt;/b&gt;&lt;/div&gt;&lt;div style=&quot;&quot;&gt;&lt;span style=&quot;font-size: 10px;&quot;&gt;date&lt;/span&gt;&lt;/div&gt;&lt;div style=&quot;&quot;&gt;&lt;span style=&quot;font-size: 10px;&quot;&gt;&lt;br&gt;&lt;/span&gt;&lt;/div&gt;&lt;/font&gt;&lt;/div&gt;&lt;div&gt;&lt;b&gt;&lt;font style=&quot;font-size: 10px; line-height: 80%; color: rgb(255, 0, 128);&quot;&gt;&amp;lt;&amp;lt;dropdown&amp;gt;&amp;gt;&lt;/font&gt;&lt;/b&gt;&lt;/div&gt;&lt;div&gt;&lt;font style=&quot;font-size: 10px; line-height: 80%;&quot;&gt;recurrencePattern&lt;/font&gt;&lt;/div&gt;&lt;div&gt;&lt;font style=&quot;font-size: 10px; line-height: 70%;&quot;&gt;&lt;br&gt;&lt;/font&gt;&lt;/div&gt;&lt;div&gt;&lt;font style=&quot;font-size: 10px; line-height: 80%;&quot;&gt;&lt;div style=&quot;font-size: 12px; line-height: 80%;&quot;&gt;&lt;b&gt;&lt;font style=&quot;font-size: 10px; line-height: 80%; color: rgb(204, 0, 102);&quot;&gt;&amp;lt;&amp;lt;dropdown.item&amp;gt;&amp;gt;&lt;/font&gt;&lt;/b&gt;&lt;/div&gt;&lt;div&gt;&lt;font style=&quot;font-size: 10px;&quot;&gt;daily&lt;/font&gt;&lt;/div&gt;&lt;div&gt;&lt;font style=&quot;font-size: 10px;&quot;&gt;&lt;br&gt;&lt;/font&gt;&lt;/div&gt;&lt;div&gt;&lt;font style=&quot;font-size: 10px;&quot;&gt;&lt;div style=&quot;font-size: 12px; line-height: 80%;&quot;&gt;&lt;b&gt;&lt;font style=&quot;font-size: 10px; line-height: 80%; color: rgb(204, 0, 102);&quot;&gt;&amp;lt;&amp;lt;dropdown.item&amp;gt;&amp;gt;&lt;/font&gt;&lt;/b&gt;&lt;/div&gt;&lt;div&gt;weekly&lt;/div&gt;&lt;div&gt;&lt;br&gt;&lt;/div&gt;&lt;div&gt;&lt;div style=&quot;font-size: 12px; line-height: 9.6px;&quot;&gt;&lt;b&gt;&lt;font style=&quot;font-size: 10px; line-height: 8px; color: rgb(204, 0, 102);&quot;&gt;&amp;lt;&amp;lt;dropdown.item&amp;gt;&amp;gt;&lt;/font&gt;&lt;/b&gt;&lt;/div&gt;&lt;div&gt;monthly&lt;/div&gt;&lt;/div&gt;&lt;/font&gt;&lt;/div&gt;&lt;/font&gt;&lt;/div&gt;&lt;div&gt;&lt;font style=&quot;font-size: 10px; line-height: 70%;&quot;&gt;&lt;br&gt;&lt;/font&gt;&lt;/div&gt;&lt;div&gt;&lt;font style=&quot;font-size: 10px; line-height: 80%;&quot;&gt;&lt;div style=&quot;font-size: 12px; line-height: 80%;&quot;&gt;&lt;b&gt;&lt;font style=&quot;font-size: 10px; line-height: 80%; color: rgb(255, 0, 128);&quot;&gt;&amp;lt;&amp;lt; /dropdown&amp;gt;&amp;gt;&lt;/font&gt;&lt;/b&gt;&lt;/div&gt;&lt;/font&gt;&lt;/div&gt;&lt;div&gt;&lt;br&gt;&lt;/div&gt;&lt;div&gt;&lt;b&gt;&lt;font style=&quot;font-size: 10px; line-height: 80%;&quot;&gt;&amp;lt;&amp;lt;button&amp;gt;&amp;gt;&lt;/font&gt;&lt;/b&gt;&lt;/div&gt;&lt;div&gt;&lt;font style=&quot;font-size: 10px; line-height: 80%;&quot;&gt;confirm&lt;/font&gt;&lt;/div&gt;&lt;div&gt;&lt;font style=&quot;font-size: 10px;&quot;&gt;&lt;br&gt;&lt;/font&gt;&lt;/div&gt;&lt;div&gt;&lt;div&gt;&lt;b&gt;&lt;font style=&quot;font-size: 10px; line-height: 80%;&quot;&gt;&amp;lt;&amp;lt;button&amp;gt;&amp;gt;&lt;/font&gt;&lt;/b&gt;&lt;/div&gt;&lt;div&gt;&lt;font style=&quot;font-size: 10px; line-height: 80%;&quot;&gt;cancel&lt;/font&gt;&lt;/div&gt;&lt;/div&gt;&lt;/div&gt;" style="rounded=0;whiteSpace=wrap;html=1;strokeWidth=2;fillColor=#ffe6cc;strokeColor=#d79b00;" parent="1" vertex="1">
          <mxGeometry x="680" y="-1020" width="160" height="300" as="geometry" />
        </mxCell>
        <mxCell id="JPS8xZOk2hbWX5UggUwU-15" style="edgeStyle=orthogonalEdgeStyle;rounded=0;orthogonalLoop=1;jettySize=auto;html=1;exitX=1;exitY=0.5;exitDx=0;exitDy=0;strokeWidth=2;entryX=-0.002;entryY=0.814;entryDx=0;entryDy=0;entryPerimeter=0;" parent="1" source="JPS8xZOk2hbWX5UggUwU-1" target="JPS8xZOk2hbWX5UggUwU-6" edge="1">
          <mxGeometry relative="1" as="geometry">
            <mxPoint x="670" y="-840" as="targetPoint" />
          </mxGeometry>
        </mxCell>
        <mxCell id="JPS8xZOk2hbWX5UggUwU-16" value="&lt;b&gt;&lt;font&gt;Click&amp;nbsp;&lt;/font&gt;&lt;/b&gt;&lt;div&gt;&lt;b&gt;&lt;font&gt;&lt;i&gt;&lt;font style=&quot;font-size: 13px;&quot;&gt;createSchedule&lt;/font&gt;&lt;/i&gt;&amp;nbsp;&lt;/font&gt;&lt;/b&gt;&lt;/div&gt;&lt;div&gt;&lt;b&gt;&lt;font&gt;Button&lt;/font&gt;&lt;/b&gt;&lt;/div&gt;" style="edgeLabel;html=1;align=center;verticalAlign=middle;resizable=0;points=[];" parent="JPS8xZOk2hbWX5UggUwU-15" vertex="1" connectable="0">
          <mxGeometry x="-0.2022" y="1" relative="1" as="geometry">
            <mxPoint x="6" y="1" as="offset" />
          </mxGeometry>
        </mxCell>
        <mxCell id="JPS8xZOk2hbWX5UggUwU-31" style="edgeStyle=orthogonalEdgeStyle;rounded=0;orthogonalLoop=1;jettySize=auto;html=1;exitX=0.25;exitY=0;exitDx=0;exitDy=0;entryX=0.5;entryY=0;entryDx=0;entryDy=0;strokeWidth=2;" parent="1" source="JPS8xZOk2hbWX5UggUwU-1" target="JPS8xZOk2hbWX5UggUwU-30" edge="1">
          <mxGeometry relative="1" as="geometry" />
        </mxCell>
        <mxCell id="JPS8xZOk2hbWX5UggUwU-32" value="&lt;font style=&quot;&quot;&gt;&lt;b style=&quot;&quot;&gt;&lt;span style=&quot;font-size: 12px;&quot;&gt;Click &lt;/span&gt;&lt;i style=&quot;&quot;&gt;&lt;font style=&quot;font-size: 14px;&quot;&gt;hamburgerMenu&lt;/font&gt;&lt;/i&gt;&lt;span style=&quot;font-size: 12px;&quot;&gt; button&lt;/span&gt;&lt;/b&gt;&lt;/font&gt;" style="edgeLabel;html=1;align=center;verticalAlign=middle;resizable=0;points=[];" parent="JPS8xZOk2hbWX5UggUwU-31" vertex="1" connectable="0">
          <mxGeometry x="0.1311" y="-2" relative="1" as="geometry">
            <mxPoint x="22" as="offset" />
          </mxGeometry>
        </mxCell>
        <mxCell id="JPS8xZOk2hbWX5UggUwU-48" style="edgeStyle=orthogonalEdgeStyle;rounded=0;orthogonalLoop=1;jettySize=auto;html=1;exitX=0;exitY=0.75;exitDx=0;exitDy=0;entryX=0.5;entryY=0;entryDx=0;entryDy=0;strokeWidth=2;" parent="1" source="JPS8xZOk2hbWX5UggUwU-1" target="JPS8xZOk2hbWX5UggUwU-41" edge="1">
          <mxGeometry relative="1" as="geometry">
            <Array as="points">
              <mxPoint x="370" y="-761" />
              <mxPoint x="130" y="-761" />
            </Array>
          </mxGeometry>
        </mxCell>
        <mxCell id="JPS8xZOk2hbWX5UggUwU-55" style="edgeStyle=orthogonalEdgeStyle;rounded=0;orthogonalLoop=1;jettySize=auto;html=1;exitX=1;exitY=0.75;exitDx=0;exitDy=0;entryX=-0.008;entryY=0.114;entryDx=0;entryDy=0;strokeWidth=2;entryPerimeter=0;" parent="1" source="JPS8xZOk2hbWX5UggUwU-1" target="JPS8xZOk2hbWX5UggUwU-9" edge="1">
          <mxGeometry relative="1" as="geometry" />
        </mxCell>
        <mxCell id="JPS8xZOk2hbWX5UggUwU-56" value="&lt;b style=&quot;&quot;&gt;&lt;font style=&quot;font-size: 12px;&quot;&gt;click&amp;nbsp;&lt;/font&gt;&lt;/b&gt;&lt;div&gt;&lt;b style=&quot;&quot;&gt;&lt;font style=&quot;font-size: 15px;&quot;&gt;&lt;i style=&quot;&quot;&gt;viewSchedule&lt;/i&gt;&amp;nbsp;&lt;/font&gt;&lt;/b&gt;&lt;/div&gt;&lt;div&gt;&lt;b style=&quot;&quot;&gt;&lt;font style=&quot;font-size: 12px;&quot;&gt;button&lt;/font&gt;&lt;/b&gt;&lt;/div&gt;" style="edgeLabel;html=1;align=center;verticalAlign=middle;resizable=0;points=[];" parent="JPS8xZOk2hbWX5UggUwU-55" vertex="1" connectable="0">
          <mxGeometry x="-0.0367" y="5" relative="1" as="geometry">
            <mxPoint x="-10" y="4" as="offset" />
          </mxGeometry>
        </mxCell>
        <mxCell id="4xpPs3tY2ZYNDka_blQr-10" style="edgeStyle=orthogonalEdgeStyle;rounded=0;orthogonalLoop=1;jettySize=auto;html=1;exitX=0;exitY=1;exitDx=0;exitDy=0;entryX=0;entryY=0.5;entryDx=0;entryDy=0;strokeWidth=2;" edge="1" parent="1" source="JPS8xZOk2hbWX5UggUwU-1" target="JPS8xZOk2hbWX5UggUwU-39">
          <mxGeometry relative="1" as="geometry" />
        </mxCell>
        <mxCell id="4xpPs3tY2ZYNDka_blQr-11" value="&lt;font style=&quot;text-wrap-mode: wrap; background-color: rgb(251, 251, 251); font-size: 10px;&quot;&gt;&lt;span style=&quot;color: rgb(0, 0, 0); text-wrap-mode: nowrap; background-color: rgb(255, 255, 255);&quot;&gt;click&lt;/span&gt;&lt;b style=&quot;color: rgb(0, 0, 0); text-wrap-mode: nowrap; background-color: rgb(255, 255, 255);&quot;&gt;&amp;nbsp;&lt;/b&gt;&lt;/font&gt;&lt;div style=&quot;text-wrap-mode: wrap; background-color: rgb(251, 251, 251);&quot;&gt;&lt;font style=&quot;font-size: 10px;&quot;&gt;&lt;span style=&quot;color: rgb(0, 0, 0); background-color: light-dark(rgb(251, 251, 251), rgb(21, 21, 21));&quot;&gt;&lt;b&gt;&lt;i&gt;deleteSchedule&lt;/i&gt;&lt;/b&gt;&lt;/span&gt;&lt;b style=&quot;color: rgb(0, 0, 0); text-wrap-mode: nowrap; background-color: rgb(255, 255, 255);&quot;&gt;&amp;nbsp;&lt;/b&gt;&lt;/font&gt;&lt;/div&gt;&lt;div style=&quot;text-wrap-mode: wrap; background-color: rgb(251, 251, 251);&quot;&gt;&lt;span style=&quot;color: rgb(0, 0, 0); text-wrap-mode: nowrap; background-color: rgb(255, 255, 255);&quot;&gt;&lt;font style=&quot;font-size: 10px;&quot;&gt;button&lt;/font&gt;&lt;/span&gt;&lt;/div&gt;" style="edgeLabel;html=1;align=center;verticalAlign=middle;resizable=0;points=[];" vertex="1" connectable="0" parent="4xpPs3tY2ZYNDka_blQr-10">
          <mxGeometry x="-0.3382" y="2" relative="1" as="geometry">
            <mxPoint x="8" y="4" as="offset" />
          </mxGeometry>
        </mxCell>
        <mxCell id="JPS8xZOk2hbWX5UggUwU-1" value="&lt;div style=&quot;line-height: 100%;&quot;&gt;&lt;b&gt;&lt;font&gt;&amp;lt;&amp;lt;window&amp;gt;&amp;gt;&lt;/font&gt;&lt;/b&gt;&lt;div&gt;&lt;font&gt;Home Screen&lt;/font&gt;&lt;/div&gt;&lt;div&gt;&lt;font&gt;&lt;br&gt;&lt;/font&gt;&lt;/div&gt;&lt;div&gt;&lt;b&gt;&lt;font&gt;&amp;lt;&amp;lt;menu&amp;gt;&amp;gt;&lt;/font&gt;&lt;/b&gt;&lt;/div&gt;&lt;div&gt;&lt;font&gt;hamburgerMenu&lt;/font&gt;&lt;/div&gt;&lt;div&gt;&lt;font&gt;&lt;br&gt;&lt;/font&gt;&lt;/div&gt;&lt;div&gt;&lt;b&gt;&lt;font&gt;&amp;lt;&amp;lt;button&amp;gt;&amp;gt;&lt;/font&gt;&lt;/b&gt;&lt;div&gt;&lt;font&gt;createSchedule&lt;/font&gt;&lt;/div&gt;&lt;/div&gt;&lt;div&gt;&lt;font&gt;&lt;br&gt;&lt;/font&gt;&lt;/div&gt;&lt;div&gt;&lt;b&gt;&lt;font style=&quot;color: rgb(0, 0, 255);&quot;&gt;&amp;lt;&amp;lt; ul &amp;gt;&amp;gt;&lt;/font&gt;&lt;/b&gt;&lt;/div&gt;&lt;div&gt;&lt;font&gt;recentSchedulesList&lt;/font&gt;&lt;/div&gt;&lt;div&gt;&lt;font&gt;&lt;br&gt;&lt;/font&gt;&lt;/div&gt;&lt;div&gt;&lt;b&gt;&lt;font style=&quot;color: rgb(255, 0, 0);&quot;&gt;&amp;lt;&amp;lt; ul li &amp;gt;&amp;gt;&lt;/font&gt;&lt;/b&gt;&lt;/div&gt;&lt;div&gt;&lt;font&gt;scheduleItem&lt;/font&gt;&lt;/div&gt;&lt;div&gt;&lt;font&gt;&lt;br&gt;&lt;/font&gt;&lt;/div&gt;&lt;div&gt;&lt;b&gt;&lt;font&gt;&amp;lt;&amp;lt;button&amp;gt;&amp;gt;&lt;/font&gt;&lt;/b&gt;&lt;/div&gt;&lt;div&gt;&lt;font&gt;viewSchedule&lt;/font&gt;&lt;/div&gt;&lt;div&gt;&lt;font&gt;&lt;br&gt;&lt;/font&gt;&lt;/div&gt;&lt;div&gt;&lt;font&gt;&lt;b&gt;&amp;lt;&amp;lt;&lt;/b&gt;&lt;b&gt;button&lt;/b&gt;&lt;b&gt;&amp;gt;&amp;gt;&lt;/b&gt;&lt;/font&gt;&lt;/div&gt;&lt;div&gt;&lt;font&gt;editSchedule&lt;/font&gt;&lt;/div&gt;&lt;div&gt;&lt;font&gt;&lt;br&gt;&lt;/font&gt;&lt;/div&gt;&lt;div&gt;&lt;font&gt;&lt;b&gt;&amp;lt;&amp;lt;&lt;/b&gt;&lt;b&gt;button&lt;/b&gt;&lt;b&gt;&amp;gt;&amp;gt;&lt;/b&gt;&lt;/font&gt;&lt;/div&gt;&lt;div&gt;&lt;font&gt;deleteSchedule&lt;/font&gt;&lt;/div&gt;&lt;div&gt;&lt;div&gt;&lt;b&gt;&lt;font style=&quot;color: rgb(255, 0, 0);&quot;&gt;&amp;lt;&amp;lt; /ul li &amp;gt;&amp;gt;&lt;/font&gt;&lt;/b&gt;&lt;/div&gt;&lt;/div&gt;&lt;div&gt;&lt;b&gt;&lt;font&gt;&lt;br&gt;&lt;/font&gt;&lt;/b&gt;&lt;/div&gt;&lt;div&gt;&lt;b&gt;&lt;font style=&quot;color: rgb(0, 0, 255);&quot;&gt;&amp;lt;&amp;lt; /ul &amp;gt;&amp;gt;&lt;/font&gt;&lt;/b&gt;&lt;/div&gt;&lt;div&gt;&lt;b&gt;&lt;font style=&quot;font-size: 9px;&quot;&gt;&lt;br&gt;&lt;/font&gt;&lt;/b&gt;&lt;/div&gt;&lt;div&gt;&lt;/div&gt;&lt;/div&gt;" style="whiteSpace=wrap;html=1;strokeWidth=3;fillColor=#f5f5f5;strokeColor=#666666;fontColor=#333333;" parent="1" vertex="1">
          <mxGeometry x="370" y="-1010" width="180" height="340" as="geometry" />
        </mxCell>
        <mxCell id="JPS8xZOk2hbWX5UggUwU-42" style="edgeStyle=orthogonalEdgeStyle;rounded=0;orthogonalLoop=1;jettySize=auto;html=1;exitX=0.5;exitY=1;exitDx=0;exitDy=0;entryX=0.5;entryY=0;entryDx=0;entryDy=0;strokeWidth=2;" parent="1" source="JPS8xZOk2hbWX5UggUwU-9" target="JPS8xZOk2hbWX5UggUwU-26" edge="1">
          <mxGeometry relative="1" as="geometry" />
        </mxCell>
        <mxCell id="JPS8xZOk2hbWX5UggUwU-44" value="&lt;b style=&quot;&quot;&gt;&lt;font style=&quot;&quot;&gt;&lt;span style=&quot;font-size: 12px;&quot;&gt;Click&amp;nbsp;&lt;/span&gt;&lt;i style=&quot;&quot;&gt;&lt;font style=&quot;font-size: 14px;&quot;&gt;createTask&lt;/font&gt;&lt;/i&gt;&lt;span style=&quot;font-size: 12px;&quot;&gt;&amp;nbsp;Button&lt;/span&gt;&lt;/font&gt;&lt;/b&gt;" style="edgeLabel;html=1;align=center;verticalAlign=middle;resizable=0;points=[];" parent="JPS8xZOk2hbWX5UggUwU-42" vertex="1" connectable="0">
          <mxGeometry x="-0.0129" y="-4" relative="1" as="geometry">
            <mxPoint as="offset" />
          </mxGeometry>
        </mxCell>
        <mxCell id="4xpPs3tY2ZYNDka_blQr-5" style="edgeStyle=orthogonalEdgeStyle;rounded=0;orthogonalLoop=1;jettySize=auto;html=1;exitX=0;exitY=0.5;exitDx=0;exitDy=0;strokeWidth=2;entryX=1.024;entryY=0.865;entryDx=0;entryDy=0;entryPerimeter=0;" edge="1" parent="1" source="JPS8xZOk2hbWX5UggUwU-9" target="4xpPs3tY2ZYNDka_blQr-4">
          <mxGeometry relative="1" as="geometry">
            <mxPoint x="540" y="-100" as="targetPoint" />
            <Array as="points">
              <mxPoint x="680" y="-570" />
              <mxPoint x="590" y="-570" />
              <mxPoint x="590" y="-100" />
            </Array>
          </mxGeometry>
        </mxCell>
        <mxCell id="4xpPs3tY2ZYNDka_blQr-6" value="click&lt;div&gt;&lt;b&gt;&lt;i&gt;viewTask&lt;/i&gt;&lt;/b&gt;&lt;/div&gt;&lt;div&gt;dropdown&lt;/div&gt;" style="edgeLabel;html=1;align=center;verticalAlign=middle;resizable=0;points=[];" vertex="1" connectable="0" parent="4xpPs3tY2ZYNDka_blQr-5">
          <mxGeometry x="-0.0129" y="3" relative="1" as="geometry">
            <mxPoint x="-13" y="179" as="offset" />
          </mxGeometry>
        </mxCell>
        <mxCell id="4xpPs3tY2ZYNDka_blQr-15" style="edgeStyle=orthogonalEdgeStyle;rounded=0;orthogonalLoop=1;jettySize=auto;html=1;exitX=0;exitY=0.5;exitDx=0;exitDy=0;entryX=0;entryY=0.75;entryDx=0;entryDy=0;strokeWidth=2;" edge="1" parent="1" source="JPS8xZOk2hbWX5UggUwU-9" target="JPS8xZOk2hbWX5UggUwU-26">
          <mxGeometry relative="1" as="geometry">
            <Array as="points">
              <mxPoint x="620" y="-545" />
              <mxPoint x="620" y="-115" />
            </Array>
          </mxGeometry>
        </mxCell>
        <mxCell id="4xpPs3tY2ZYNDka_blQr-17" value="click&lt;div&gt;&lt;b&gt;&lt;i&gt;editTask&lt;/i&gt;&lt;/b&gt;&lt;/div&gt;&lt;div&gt;dropdown&lt;/div&gt;" style="edgeLabel;html=1;align=center;verticalAlign=middle;resizable=0;points=[];" vertex="1" connectable="0" parent="4xpPs3tY2ZYNDka_blQr-15">
          <mxGeometry x="-0.2999" relative="1" as="geometry">
            <mxPoint as="offset" />
          </mxGeometry>
        </mxCell>
        <mxCell id="JPS8xZOk2hbWX5UggUwU-9" value="&lt;div style=&quot;line-height: 70%;&quot;&gt;&lt;b&gt;&lt;font style=&quot;font-size: 8px; line-height: 70%;&quot;&gt;&amp;lt;&amp;lt;window&amp;gt;&amp;gt;&lt;/font&gt;&lt;/b&gt;&lt;div&gt;&lt;font style=&quot;font-size: 8px; line-height: 70%;&quot;&gt;Schedule/Calendar Screen&lt;/font&gt;&lt;/div&gt;&lt;div&gt;&lt;font style=&quot;font-size: 8px;&quot;&gt;&lt;br&gt;&lt;/font&gt;&lt;/div&gt;&lt;div&gt;&lt;b&gt;&lt;font style=&quot;font-size: 8px; line-height: 70%;&quot;&gt;&amp;lt;&amp;lt;button&amp;gt;&amp;gt;&lt;/font&gt;&lt;/b&gt;&lt;/div&gt;&lt;div&gt;&lt;font style=&quot;font-size: 8px; line-height: 70%;&quot;&gt;createTask&lt;/font&gt;&lt;/div&gt;&lt;div&gt;&lt;font style=&quot;font-size: 8px;&quot;&gt;&lt;br&gt;&lt;/font&gt;&lt;/div&gt;&lt;div&gt;&lt;span style=&quot;background-color: transparent;&quot;&gt;&lt;font style=&quot;font-size: 8px; line-height: 70%;&quot; color=&quot;#3333ff&quot;&gt;&lt;b&gt;&amp;lt;&amp;lt; ul &amp;gt;&amp;gt;&lt;/b&gt;&lt;/font&gt;&lt;/span&gt;&lt;/div&gt;&lt;div&gt;&lt;span style=&quot;background-color: transparent; color: light-dark(rgb(0, 0, 0), rgb(255, 255, 255));&quot;&gt;&lt;font style=&quot;font-size: 8px; line-height: 70%;&quot;&gt;daysList&lt;/font&gt;&lt;/span&gt;&lt;/div&gt;&lt;div&gt;&lt;font style=&quot;font-size: 8px;&quot;&gt;&lt;br&gt;&lt;/font&gt;&lt;/div&gt;&lt;div&gt;&lt;b&gt;&lt;font style=&quot;color: rgb(255, 9, 0); font-size: 8px; line-height: 70%;&quot;&gt;&amp;lt;&amp;lt; ul li &amp;gt;&amp;gt;&lt;/font&gt;&lt;/b&gt;&lt;/div&gt;&lt;div&gt;&lt;font style=&quot;font-size: 8px; line-height: 70%;&quot;&gt;dayItem&lt;/font&gt;&lt;/div&gt;&lt;div&gt;&lt;font style=&quot;font-size: 8px;&quot;&gt;&lt;br&gt;&lt;/font&gt;&lt;/div&gt;&lt;div&gt;&lt;div style=&quot;color: rgb(0, 0, 0);&quot;&gt;&lt;b&gt;&lt;font style=&quot;color: rgb(255, 0, 128); font-size: 8px; line-height: 70%;&quot;&gt;&amp;lt;&amp;lt;dropdown&amp;gt;&amp;gt;&lt;/font&gt;&lt;/b&gt;&lt;/div&gt;&lt;div style=&quot;color: rgb(0, 0, 0);&quot;&gt;&lt;font style=&quot;font-size: 8px; line-height: 70%;&quot;&gt;taskOptions&lt;/font&gt;&lt;/div&gt;&lt;div style=&quot;color: rgb(0, 0, 0);&quot;&gt;&lt;font style=&quot;line-height: 7px; font-size: 8px;&quot;&gt;&lt;br&gt;&lt;/font&gt;&lt;/div&gt;&lt;div style=&quot;color: rgb(0, 0, 0);&quot;&gt;&lt;font style=&quot;font-size: 8px; line-height: 100%;&quot;&gt;&lt;div&gt;&lt;b&gt;&lt;font style=&quot;color: rgb(204, 0, 102);&quot;&gt;&amp;lt;&amp;lt;dropdown.item&amp;gt;&amp;gt;&lt;/font&gt;&lt;/b&gt;&lt;/div&gt;&lt;div&gt;viewTask&lt;/div&gt;&lt;div&gt;&lt;br&gt;&lt;/div&gt;&lt;div&gt;&lt;div&gt;&lt;b&gt;&lt;font style=&quot;color: rgb(204, 0, 102);&quot;&gt;&amp;lt;&amp;lt;dropdown.item&amp;gt;&amp;gt;&lt;/font&gt;&lt;/b&gt;&lt;/div&gt;&lt;div&gt;editTask&lt;/div&gt;&lt;div&gt;&lt;br&gt;&lt;/div&gt;&lt;div&gt;&lt;div&gt;&lt;b&gt;&lt;font style=&quot;color: rgb(204, 0, 102);&quot;&gt;&amp;lt;&amp;lt;dropdown.item&amp;gt;&amp;gt;&lt;/font&gt;&lt;/b&gt;&lt;/div&gt;&lt;div&gt;deleteTask&lt;/div&gt;&lt;/div&gt;&lt;/div&gt;&lt;/font&gt;&lt;/div&gt;&lt;div style=&quot;color: rgb(0, 0, 0);&quot;&gt;&lt;font style=&quot;line-height: 7px; font-size: 8px;&quot;&gt;&lt;br&gt;&lt;/font&gt;&lt;/div&gt;&lt;div style=&quot;color: rgb(0, 0, 0);&quot;&gt;&lt;font&gt;&lt;div&gt;&lt;b&gt;&lt;font style=&quot;color: rgb(255, 0, 128); font-size: 8px; line-height: 70%;&quot;&gt;&amp;lt;&amp;lt; /dropdown&amp;gt;&amp;gt;&lt;/font&gt;&lt;/b&gt;&lt;/div&gt;&lt;div&gt;&lt;b&gt;&lt;font style=&quot;color: rgb(255, 0, 128); font-size: 8px; line-height: 70%;&quot;&gt;&lt;br&gt;&lt;/font&gt;&lt;/b&gt;&lt;/div&gt;&lt;/font&gt;&lt;/div&gt;&lt;/div&gt;&lt;div&gt;&lt;b style=&quot;background-color: transparent; color: light-dark(rgb(51, 51, 51), rgb(193, 193, 193));&quot;&gt;&lt;font style=&quot;color: rgb(255, 33, 16); font-size: 8px; line-height: 70%;&quot;&gt;&amp;lt;&amp;lt; /ul li &amp;gt;&amp;gt;&lt;/font&gt;&lt;/b&gt;&lt;/div&gt;&lt;div&gt;&lt;b&gt;&lt;font style=&quot;color: rgb(0, 0, 255); font-size: 8px; line-height: 70%;&quot;&gt;&amp;lt;&amp;lt; /ul &amp;gt;&amp;gt;&lt;/font&gt;&lt;/b&gt;&lt;/div&gt;&lt;div&gt;&lt;/div&gt;&lt;/div&gt;" style="rounded=0;whiteSpace=wrap;html=1;strokeWidth=3;fillColor=#f5f5f5;fontColor=#333333;strokeColor=#666666;" parent="1" vertex="1">
          <mxGeometry x="680" y="-670" width="160" height="250" as="geometry" />
        </mxCell>
        <mxCell id="JPS8xZOk2hbWX5UggUwU-72" value="-" style="edgeStyle=orthogonalEdgeStyle;rounded=0;orthogonalLoop=1;jettySize=auto;html=1;exitX=0.75;exitY=1;exitDx=0;exitDy=0;strokeWidth=2;entryX=1.027;entryY=0.375;entryDx=0;entryDy=0;entryPerimeter=0;" parent="1" source="JPS8xZOk2hbWX5UggUwU-26" edge="1" target="JPS8xZOk2hbWX5UggUwU-74">
          <mxGeometry relative="1" as="geometry">
            <mxPoint x="280" y="-140" as="targetPoint" />
            <Array as="points">
              <mxPoint x="800" y="-60" />
              <mxPoint x="760" y="-60" />
              <mxPoint x="760" y="-20" />
              <mxPoint x="280" y="-20" />
              <mxPoint x="280" y="-164" />
            </Array>
          </mxGeometry>
        </mxCell>
        <mxCell id="JPS8xZOk2hbWX5UggUwU-73" value="&lt;font style=&quot;font-size: 17px;&quot;&gt;&lt;b&gt;click &lt;i&gt;Confirm&lt;/i&gt; button&lt;/b&gt;&lt;/font&gt;" style="edgeLabel;html=1;align=center;verticalAlign=middle;resizable=0;points=[];" parent="JPS8xZOk2hbWX5UggUwU-72" vertex="1" connectable="0">
          <mxGeometry x="0.382" y="-3" relative="1" as="geometry">
            <mxPoint x="77" as="offset" />
          </mxGeometry>
        </mxCell>
        <mxCell id="JPS8xZOk2hbWX5UggUwU-26" value="&lt;div style=&quot;line-height: 60%;&quot;&gt;&lt;b&gt;&lt;font style=&quot;font-size: 9px; line-height: 60%;&quot;&gt;&amp;lt;&amp;lt;form&amp;gt;&amp;gt;&lt;/font&gt;&lt;/b&gt;&lt;div&gt;&lt;font style=&quot;font-size: 9px; line-height: 60%;&quot;&gt;createTaskPop-up&lt;/font&gt;&lt;/div&gt;&lt;div&gt;&lt;font style=&quot;font-size: 9px;&quot;&gt;&lt;br&gt;&lt;/font&gt;&lt;/div&gt;&lt;div&gt;&lt;b&gt;&lt;font style=&quot;font-size: 9px; line-height: 60%;&quot;&gt;&amp;lt;&amp;lt;Input text field&amp;gt;&amp;gt;&lt;/font&gt;&lt;/b&gt;&lt;/div&gt;&lt;div&gt;&lt;span style=&quot;background-color: transparent; color: light-dark(rgb(0, 0, 0), rgb(255, 255, 255));&quot;&gt;&lt;font style=&quot;font-size: 9px; line-height: 60%;&quot;&gt;title&lt;/font&gt;&lt;/span&gt;&lt;/div&gt;&lt;div&gt;&lt;b&gt;&lt;font style=&quot;font-size: 9px;&quot;&gt;&lt;br&gt;&lt;/font&gt;&lt;/b&gt;&lt;/div&gt;&lt;div&gt;&lt;b&gt;&lt;font style=&quot;font-size: 9px; line-height: 60%;&quot;&gt;&amp;lt;&amp;lt;date-picker&amp;gt;&amp;gt;&lt;/font&gt;&lt;/b&gt;&lt;/div&gt;&lt;div&gt;&lt;font style=&quot;font-size: 9px; line-height: 60%;&quot;&gt;deadline&lt;/font&gt;&lt;/div&gt;&lt;div&gt;&lt;b&gt;&lt;font style=&quot;font-size: 9px;&quot;&gt;&lt;br&gt;&lt;/font&gt;&lt;/b&gt;&lt;/div&gt;&lt;div&gt;&lt;font style=&quot;font-size: 9px; line-height: 60%;&quot;&gt;&lt;b&gt;&amp;lt;&amp;lt;&lt;/b&gt;&lt;b&gt;slider&lt;/b&gt;&lt;b&gt;&amp;gt;&amp;gt;&lt;/b&gt;&lt;/font&gt;&lt;/div&gt;&lt;div&gt;&lt;font style=&quot;font-size: 9px; line-height: 60%;&quot;&gt;Priority&lt;/font&gt;&lt;/div&gt;&lt;div&gt;&lt;font style=&quot;font-size: 9px; line-height: 60%;&quot;&gt;&lt;br&gt;&lt;/font&gt;&lt;/div&gt;&lt;div&gt;&lt;font style=&quot;font-size: 9px; line-height: 60%;&quot;&gt;&lt;div style=&quot;font-size: 12px;&quot;&gt;&lt;b&gt;&lt;font style=&quot;font-size: 9px; line-height: 5.4px;&quot;&gt;&amp;lt;&amp;lt;slider&amp;gt;&amp;gt;&lt;/font&gt;&lt;/b&gt;&lt;/div&gt;&lt;div style=&quot;font-size: 12px;&quot;&gt;&lt;font style=&quot;font-size: 9px; line-height: 5.4px;&quot;&gt;energyScale&lt;/font&gt;&lt;/div&gt;&lt;/font&gt;&lt;/div&gt;&lt;div&gt;&lt;b&gt;&lt;font style=&quot;font-size: 9px;&quot;&gt;&lt;br&gt;&lt;/font&gt;&lt;/b&gt;&lt;/div&gt;&lt;div&gt;&lt;b&gt;&lt;font style=&quot;font-size: 9px; line-height: 60%;&quot;&gt;&amp;lt;&amp;lt;time-picker&amp;gt;&amp;gt;&lt;/font&gt;&lt;/b&gt;&lt;/div&gt;&lt;div&gt;&lt;font style=&quot;font-size: 9px; line-height: 60%;&quot;&gt;startTime&lt;/font&gt;&lt;/div&gt;&lt;div&gt;&lt;br&gt;&lt;/div&gt;&lt;div style=&quot;line-height: 80%;&quot;&gt;&lt;div style=&quot;color: rgb(0, 0, 0);&quot;&gt;&lt;b&gt;&lt;font style=&quot;color: rgb(255, 0, 128); font-size: 9px; line-height: 60%;&quot;&gt;&amp;lt;&amp;lt;dropdown&amp;gt;&amp;gt;&lt;/font&gt;&lt;/b&gt;&lt;/div&gt;&lt;div style=&quot;color: rgb(0, 0, 0);&quot;&gt;&lt;font style=&quot;font-size: 9px; line-height: 60%;&quot;&gt;statusOptions&lt;/font&gt;&lt;/div&gt;&lt;div style=&quot;color: rgb(0, 0, 0);&quot;&gt;&lt;font style=&quot;line-height: 7px; font-size: 9px;&quot;&gt;&lt;br&gt;&lt;/font&gt;&lt;/div&gt;&lt;div style=&quot;color: rgb(0, 0, 0);&quot;&gt;&lt;font style=&quot;font-size: 9px; line-height: 80%;&quot;&gt;&lt;div&gt;&lt;b&gt;&lt;font style=&quot;color: rgb(204, 0, 102);&quot;&gt;&amp;lt;&amp;lt;dropdown.item&amp;gt;&amp;gt;&lt;/font&gt;&lt;/b&gt;&lt;/div&gt;&lt;div&gt;pending&lt;/div&gt;&lt;div&gt;&lt;br&gt;&lt;/div&gt;&lt;div&gt;&lt;div&gt;&lt;b&gt;&lt;font style=&quot;color: rgb(204, 0, 102);&quot;&gt;&amp;lt;&amp;lt;dropdown.item&amp;gt;&amp;gt;&lt;/font&gt;&lt;/b&gt;&lt;/div&gt;&lt;div&gt;inProgress&lt;/div&gt;&lt;div&gt;&lt;br&gt;&lt;/div&gt;&lt;div&gt;&lt;div&gt;&lt;b&gt;&lt;font style=&quot;color: rgb(204, 0, 102);&quot;&gt;&amp;lt;&amp;lt;dropdown.item&amp;gt;&amp;gt;&lt;/font&gt;&lt;/b&gt;&lt;/div&gt;&lt;div&gt;Completed&lt;/div&gt;&lt;/div&gt;&lt;/div&gt;&lt;div&gt;&lt;br&gt;&lt;/div&gt;&lt;/font&gt;&lt;/div&gt;&lt;div style=&quot;color: rgb(0, 0, 0);&quot;&gt;&lt;b&gt;&lt;font style=&quot;color: rgb(255, 0, 128); font-size: 9px; line-height: 80%;&quot;&gt;&amp;lt;&amp;lt; /dropdown&amp;gt;&amp;gt;&lt;/font&gt;&lt;/b&gt;&lt;/div&gt;&lt;/div&gt;&lt;div&gt;&lt;b&gt;&lt;font style=&quot;font-size: 9px;&quot;&gt;&lt;br&gt;&lt;/font&gt;&lt;/b&gt;&lt;/div&gt;&lt;div&gt;&lt;b&gt;&lt;font style=&quot;font-size: 9px; line-height: 60%;&quot;&gt;&amp;lt;&amp;lt;Input text area&amp;gt;&amp;gt;&lt;/font&gt;&lt;/b&gt;&lt;/div&gt;&lt;div&gt;&lt;span style=&quot;background-color: transparent; color: light-dark(rgb(0, 0, 0), rgb(255, 255, 255));&quot;&gt;&lt;font style=&quot;font-size: 9px; line-height: 60%;&quot;&gt;Entry Journal&lt;/font&gt;&lt;/span&gt;&lt;/div&gt;&lt;div&gt;&lt;b&gt;&lt;font style=&quot;font-size: 9px;&quot;&gt;&lt;br&gt;&lt;/font&gt;&lt;/b&gt;&lt;/div&gt;&lt;div&gt;&lt;b&gt;&lt;font style=&quot;font-size: 9px; line-height: 60%;&quot;&gt;&amp;lt;&amp;lt;button&amp;gt;&amp;gt;&lt;/font&gt;&lt;/b&gt;&lt;/div&gt;&lt;div&gt;&lt;font style=&quot;font-size: 9px; line-height: 60%;&quot;&gt;Confirm&lt;/font&gt;&lt;/div&gt;&lt;div&gt;&lt;font style=&quot;font-size: 9px;&quot;&gt;&lt;br&gt;&lt;/font&gt;&lt;/div&gt;&lt;div&gt;&lt;div&gt;&lt;b&gt;&lt;font style=&quot;font-size: 9px; line-height: 60%;&quot;&gt;&amp;lt;&amp;lt;button&amp;gt;&amp;gt;&lt;/font&gt;&lt;/b&gt;&lt;/div&gt;&lt;div&gt;&lt;font style=&quot;font-size: 9px; line-height: 60%;&quot;&gt;cancel&lt;/font&gt;&lt;/div&gt;&lt;/div&gt;&lt;/div&gt;" style="rounded=0;whiteSpace=wrap;html=1;strokeWidth=2;fillColor=#ffe6cc;strokeColor=#d79b00;" parent="1" vertex="1">
          <mxGeometry x="680" y="-370" width="160" height="340" as="geometry" />
        </mxCell>
        <mxCell id="JPS8xZOk2hbWX5UggUwU-33" style="edgeStyle=orthogonalEdgeStyle;rounded=0;orthogonalLoop=1;jettySize=auto;html=1;exitX=0.5;exitY=1;exitDx=0;exitDy=0;strokeWidth=2;" parent="1" source="JPS8xZOk2hbWX5UggUwU-30" target="JPS8xZOk2hbWX5UggUwU-1" edge="1">
          <mxGeometry relative="1" as="geometry">
            <Array as="points">
              <mxPoint x="170" y="-840" />
            </Array>
          </mxGeometry>
        </mxCell>
        <mxCell id="JPS8xZOk2hbWX5UggUwU-35" value="&lt;b&gt;&lt;font style=&quot;&quot;&gt;&lt;span style=&quot;font-size: 12px;&quot;&gt;Click &lt;/span&gt;&lt;i style=&quot;&quot;&gt;&lt;font style=&quot;font-size: 15px;&quot;&gt;Back&lt;/font&gt;&lt;/i&gt;&lt;span style=&quot;font-size: 12px;&quot;&gt; Button&lt;/span&gt;&lt;/font&gt;&lt;/b&gt;" style="edgeLabel;html=1;align=center;verticalAlign=middle;resizable=0;points=[];" parent="JPS8xZOk2hbWX5UggUwU-33" vertex="1" connectable="0">
          <mxGeometry x="0.3361" y="-4" relative="1" as="geometry">
            <mxPoint x="-23" y="-4" as="offset" />
          </mxGeometry>
        </mxCell>
        <mxCell id="JPS8xZOk2hbWX5UggUwU-30" value="&lt;div style=&quot;line-height: 100%;&quot;&gt;&lt;div&gt;&lt;b&gt;&amp;lt;&amp;lt;form&amp;gt;&amp;gt;&lt;/b&gt;&lt;/div&gt;&lt;div&gt;sideBar&lt;/div&gt;&lt;div&gt;&lt;b&gt;&lt;br&gt;&lt;/b&gt;&lt;/div&gt;&lt;div&gt;&lt;b&gt;&amp;lt;&amp;lt;button&amp;gt;&amp;gt;&lt;/b&gt;&lt;/div&gt;&lt;div&gt;settings&lt;/div&gt;&lt;div&gt;&lt;br&gt;&lt;/div&gt;&lt;div&gt;&lt;b&gt;&amp;lt;&amp;lt;button&amp;gt;&amp;gt;&lt;/b&gt;&lt;/div&gt;&lt;div&gt;profile&lt;/div&gt;&lt;div&gt;&lt;br&gt;&lt;/div&gt;&lt;div&gt;&lt;b&gt;&amp;lt;&amp;lt;button&amp;gt;&amp;gt;&lt;/b&gt;&lt;/div&gt;&lt;div&gt;back&lt;/div&gt;&lt;/div&gt;" style="whiteSpace=wrap;html=1;strokeWidth=2;fillColor=#ffe6cc;strokeColor=#d79b00;" parent="1" vertex="1">
          <mxGeometry x="40" y="-1010" width="190" height="150.02" as="geometry" />
        </mxCell>
        <mxCell id="JPS8xZOk2hbWX5UggUwU-57" style="edgeStyle=orthogonalEdgeStyle;rounded=0;orthogonalLoop=1;jettySize=auto;html=1;exitX=1;exitY=0.5;exitDx=0;exitDy=0;entryX=1;entryY=1;entryDx=0;entryDy=0;strokeWidth=2;" parent="1" source="JPS8xZOk2hbWX5UggUwU-39" target="JPS8xZOk2hbWX5UggUwU-1" edge="1">
          <mxGeometry relative="1" as="geometry">
            <Array as="points">
              <mxPoint x="520" y="-519" />
              <mxPoint x="520" y="-670" />
            </Array>
          </mxGeometry>
        </mxCell>
        <mxCell id="JPS8xZOk2hbWX5UggUwU-58" value="&lt;font style=&quot;font-size: 13px;&quot;&gt;click&lt;b style=&quot;&quot;&gt;&amp;nbsp;&lt;/b&gt;&lt;span style=&quot;text-wrap-mode: wrap; background-color: rgb(251, 251, 251);&quot;&gt;&lt;b style=&quot;&quot;&gt;&lt;i style=&quot;&quot;&gt;&lt;font style=&quot;&quot;&gt;cancel&lt;/font&gt;&lt;/i&gt;&lt;/b&gt;&lt;/span&gt;&lt;b style=&quot;&quot;&gt;&amp;nbsp;&lt;/b&gt;button&lt;/font&gt;" style="edgeLabel;html=1;align=center;verticalAlign=middle;resizable=0;points=[];" parent="JPS8xZOk2hbWX5UggUwU-57" vertex="1" connectable="0">
          <mxGeometry x="0.2264" y="-5" relative="1" as="geometry">
            <mxPoint x="-25" y="-17" as="offset" />
          </mxGeometry>
        </mxCell>
        <mxCell id="JPS8xZOk2hbWX5UggUwU-39" value="&lt;div style=&quot;line-height: 100%;&quot;&gt;&lt;b&gt;&amp;lt;&amp;lt;form&amp;gt;&amp;gt;&lt;/b&gt;&lt;div&gt;deleteSchedulePop-up&lt;/div&gt;&lt;div&gt;&lt;b&gt;&lt;br&gt;&lt;/b&gt;&lt;/div&gt;&lt;div&gt;&lt;b&gt;&amp;lt;&amp;lt;report&amp;gt;&amp;gt;&lt;/b&gt;&lt;/div&gt;&lt;div&gt;Arey you sure you want to delete?&lt;/div&gt;&lt;div&gt;&lt;b&gt;&lt;br&gt;&lt;/b&gt;&lt;/div&gt;&lt;div&gt;&lt;b&gt;&amp;lt;&amp;lt;button&amp;gt;&amp;gt;&lt;/b&gt;&lt;/div&gt;&lt;div&gt;confirmDeletion&lt;/div&gt;&lt;div&gt;&lt;b&gt;&lt;br&gt;&lt;/b&gt;&lt;/div&gt;&lt;div&gt;&lt;b&gt;&amp;lt;&amp;lt;button&amp;gt;&amp;gt;&lt;/b&gt;&lt;/div&gt;&lt;div&gt;cancel&lt;/div&gt;&lt;/div&gt;" style="whiteSpace=wrap;html=1;strokeWidth=2;fillColor=#ffe6cc;strokeColor=#d79b00;" parent="1" vertex="1">
          <mxGeometry x="360" y="-600" width="140" height="162.52" as="geometry" />
        </mxCell>
        <mxCell id="JPS8xZOk2hbWX5UggUwU-41" value="&lt;div style=&quot;line-height: 100%;&quot;&gt;&lt;b&gt;&amp;lt;&amp;lt;form&amp;gt;&amp;gt;&lt;/b&gt;&lt;div&gt;editSchedulePop-up&lt;/div&gt;&lt;div&gt;&lt;br&gt;&lt;/div&gt;&lt;div&gt;&lt;b&gt;&amp;lt;&amp;lt;dropdown&amp;gt;&amp;gt;&lt;/b&gt;&lt;/div&gt;&lt;div&gt;recurrencePattern&lt;/div&gt;&lt;div&gt;&lt;br&gt;&lt;/div&gt;&lt;div&gt;&lt;b&gt;&amp;lt;&amp;lt;Input text field&amp;gt;&amp;gt;&lt;/b&gt;&lt;/div&gt;&lt;div&gt;title&lt;/div&gt;&lt;div&gt;&lt;br&gt;&lt;/div&gt;&lt;div&gt;&lt;b&gt;&amp;lt;&amp;lt;Input text area&amp;gt;&amp;gt;&lt;/b&gt;&lt;/div&gt;&lt;div&gt;description&lt;/div&gt;&lt;div&gt;&lt;br&gt;&lt;/div&gt;&lt;div&gt;&lt;b&gt;&amp;lt;&amp;lt;date-picker&amp;gt;&amp;gt;&lt;/b&gt;&lt;/div&gt;&lt;div&gt;Date&lt;/div&gt;&lt;div&gt;&lt;br&gt;&lt;/div&gt;&lt;div&gt;&lt;b&gt;&amp;lt;&amp;lt;button&amp;gt;&amp;gt;&lt;/b&gt;&lt;/div&gt;&lt;div&gt;save&lt;/div&gt;&lt;div&gt;&lt;br&gt;&lt;/div&gt;&lt;div&gt;&lt;div&gt;&lt;b&gt;&amp;lt;&amp;lt;button&amp;gt;&amp;gt;&lt;/b&gt;&lt;/div&gt;&lt;div&gt;cancel&lt;/div&gt;&lt;/div&gt;&lt;/div&gt;" style="rounded=0;whiteSpace=wrap;html=1;strokeWidth=2;fillColor=#ffe6cc;strokeColor=#d79b00;" parent="1" vertex="1">
          <mxGeometry x="40" y="-741.26" width="180" height="252.52" as="geometry" />
        </mxCell>
        <mxCell id="JPS8xZOk2hbWX5UggUwU-49" value="&lt;font style=&quot;font-size: 13px;&quot;&gt;&lt;b style=&quot;&quot;&gt;click&amp;nbsp;&lt;/b&gt;&lt;span style=&quot;text-wrap-mode: wrap; background-color: rgb(251, 251, 251);&quot;&gt;&lt;font style=&quot;&quot;&gt;&lt;b&gt;&lt;i&gt;editSchedule&lt;/i&gt;&lt;/b&gt;&lt;/font&gt;&lt;/span&gt;&lt;b style=&quot;&quot;&gt;&amp;nbsp;button&lt;/b&gt;&lt;/font&gt;" style="edgeLabel;html=1;align=center;verticalAlign=middle;resizable=0;points=[];" parent="1" vertex="1" connectable="0">
          <mxGeometry x="260" y="-760.0006129510582" as="geometry">
            <mxPoint x="7" y="-7" as="offset" />
          </mxGeometry>
        </mxCell>
        <mxCell id="JPS8xZOk2hbWX5UggUwU-53" style="edgeStyle=orthogonalEdgeStyle;rounded=0;orthogonalLoop=1;jettySize=auto;html=1;exitX=0.5;exitY=1;exitDx=0;exitDy=0;entryX=-0.036;entryY=0.849;entryDx=0;entryDy=0;entryPerimeter=0;strokeWidth=2;" parent="1" source="JPS8xZOk2hbWX5UggUwU-41" target="JPS8xZOk2hbWX5UggUwU-1" edge="1">
          <mxGeometry relative="1" as="geometry" />
        </mxCell>
        <mxCell id="JPS8xZOk2hbWX5UggUwU-54" value="&lt;font style=&quot;font-size: 13px;&quot;&gt;&lt;b style=&quot;&quot;&gt;Click&amp;nbsp;&lt;/b&gt;&lt;/font&gt;&lt;div&gt;&lt;font style=&quot;&quot;&gt;&lt;b style=&quot;&quot;&gt;&lt;i style=&quot;&quot;&gt;&lt;font style=&quot;font-size: 17px;&quot;&gt;save&lt;/font&gt;&lt;/i&gt;&lt;span style=&quot;font-size: 13px;&quot;&gt;&amp;nbsp;&lt;/span&gt;&lt;/b&gt;&lt;/font&gt;&lt;/div&gt;&lt;div&gt;&lt;font style=&quot;font-size: 13px;&quot;&gt;&lt;b style=&quot;&quot;&gt;button&lt;/b&gt;&lt;/font&gt;&lt;/div&gt;" style="edgeLabel;html=1;align=center;verticalAlign=middle;resizable=0;points=[];" parent="JPS8xZOk2hbWX5UggUwU-53" vertex="1" connectable="0">
          <mxGeometry x="0.1825" y="-3" relative="1" as="geometry">
            <mxPoint y="1" as="offset" />
          </mxGeometry>
        </mxCell>
        <mxCell id="JPS8xZOk2hbWX5UggUwU-61" style="edgeStyle=orthogonalEdgeStyle;rounded=0;orthogonalLoop=1;jettySize=auto;html=1;exitX=0.5;exitY=0;exitDx=0;exitDy=0;entryX=0.716;entryY=0.001;entryDx=0;entryDy=0;entryPerimeter=0;strokeWidth=2;" parent="1" source="JPS8xZOk2hbWX5UggUwU-6" target="JPS8xZOk2hbWX5UggUwU-1" edge="1">
          <mxGeometry relative="1" as="geometry">
            <Array as="points">
              <mxPoint x="760" y="-1030" />
              <mxPoint x="499" y="-1030" />
            </Array>
          </mxGeometry>
        </mxCell>
        <mxCell id="JPS8xZOk2hbWX5UggUwU-62" value="&lt;b&gt;&lt;font style=&quot;&quot;&gt;&lt;span style=&quot;font-size: 13px;&quot;&gt;Click &lt;/span&gt;&lt;i style=&quot;&quot;&gt;&lt;font style=&quot;font-size: 15px;&quot;&gt;Cancel&lt;/font&gt;&lt;/i&gt;&lt;span style=&quot;font-size: 13px;&quot;&gt; Button&lt;/span&gt;&lt;/font&gt;&lt;/b&gt;" style="edgeLabel;html=1;align=center;verticalAlign=middle;resizable=0;points=[];" parent="JPS8xZOk2hbWX5UggUwU-61" vertex="1" connectable="0">
          <mxGeometry x="0.0974" y="-3" relative="1" as="geometry">
            <mxPoint x="6" y="3" as="offset" />
          </mxGeometry>
        </mxCell>
        <mxCell id="JPS8xZOk2hbWX5UggUwU-67" style="edgeStyle=orthogonalEdgeStyle;rounded=0;orthogonalLoop=1;jettySize=auto;html=1;strokeWidth=2;entryX=-0.001;entryY=0.663;entryDx=0;entryDy=0;entryPerimeter=0;" parent="1" source="JPS8xZOk2hbWX5UggUwU-26" edge="1" target="JPS8xZOk2hbWX5UggUwU-9">
          <mxGeometry relative="1" as="geometry">
            <mxPoint x="660" y="-500" as="targetPoint" />
            <Array as="points">
              <mxPoint x="650" y="-330" />
              <mxPoint x="650" y="-504" />
              <mxPoint x="660" y="-504" />
            </Array>
          </mxGeometry>
        </mxCell>
        <mxCell id="JPS8xZOk2hbWX5UggUwU-70" value="&lt;span style=&quot;color: rgba(0, 0, 0, 0); font-family: monospace; font-size: 0px; text-align: start; background-color: rgb(251, 251, 251);&quot;&gt;%3CmxGraphModel%3E%3Croot%3E%3CmxCell%20id%3D%220%22%2F%3E%3CmxCell%20id%3D%221%22%20parent%3D%220%22%2F%3E%3CmxCell%20id%3D%222%22%20value%3D%22%26lt%3Bb%20style%3D%26quot%3B%26quot%3B%26gt%3B%26lt%3Bfont%20style%3D%26quot%3Bfont-size%3A%2012px%3B%26quot%3B%26gt%3BClick%26amp%3Bnbsp%3B%26lt%3Bi%20style%3D%26quot%3B%26quot%3B%26gt%3BcreateTask%26lt%3B%2Fi%26gt%3B%26amp%3Bnbsp%3BButton%26lt%3B%2Ffont%26gt%3B%26lt%3B%2Fb%26gt%3B%22%20style%3D%22edgeLabel%3Bhtml%3D1%3Balign%3Dcenter%3BverticalAlign%3Dmiddle%3Bresizable%3D0%3Bpoints%3D%5B%5D%3B%22%20vertex%3D%221%22%20connectable%3D%220%22%20parent%3D%221%22%3E%3CmxGeometry%20x%3D%22756%22%20y%3D%22-460.83333333333326%22%20as%3D%22geometry%22%2F%3E%3C%2FmxCell%3E%3C%2Froot%3E%3C%2FmxGraphModel%3E&lt;/span&gt;&lt;span style=&quot;color: rgba(0, 0, 0, 0); font-family: monospace; font-size: 0px; text-align: start; background-color: rgb(251, 251, 251);&quot;&gt;%3CmxGraphModel%3E%3Croot%3E%3CmxCell%20id%3D%220%22%2F%3E%3CmxCell%20id%3D%221%22%20parent%3D%220%22%2F%3E%3CmxCell%20id%3D%222%22%20value%3D%22%26lt%3Bb%20style%3D%26quot%3B%26quot%3B%26gt%3B%26lt%3Bfont%20style%3D%26quot%3Bfont-size%3A%2012px%3B%26quot%3B%26gt%3BClick%26amp%3Bnbsp%3B%26lt%3Bi%20style%3D%26quot%3B%26quot%3B%26gt%3BcreateTask%26lt%3B%2Fi%26gt%3B%26amp%3Bnbsp%3BButton%26lt%3B%2Ffont%26gt%3B%26lt%3B%2Fb%26gt%3B%22%20style%3D%22edgeLabel%3Bhtml%3D1%3Balign%3Dcenter%3BverticalAlign%3Dmiddle%3Bresizable%3D0%3Bpoints%3D%5B%5D%3B%22%20vertex%3D%221%22%20connectable%3D%220%22%20parent%3D%221%22%3E%3CmxGeometry%20x%3D%22756%22%20y%3D%22-460.83333333333326%22%20as%3D%22geometry%22%2F%3E%3C%2FmxCell%3E%3C%2Froot%3E%3C%2FmxGraphModel%3E&lt;/span&gt;" style="edgeLabel;html=1;align=center;verticalAlign=middle;resizable=0;points=[];" parent="JPS8xZOk2hbWX5UggUwU-67" vertex="1" connectable="0">
          <mxGeometry x="0.3872" y="-1" relative="1" as="geometry">
            <mxPoint as="offset" />
          </mxGeometry>
        </mxCell>
        <mxCell id="JPS8xZOk2hbWX5UggUwU-71" value="&lt;b&gt;&lt;font style=&quot;font-size: 12px;&quot;&gt;Click&amp;nbsp;&lt;/font&gt;&lt;/b&gt;&lt;div&gt;&lt;b&gt;&lt;font style=&quot;&quot;&gt;&lt;i style=&quot;&quot;&gt;&lt;font style=&quot;font-size: 15px;&quot;&gt;cancel&lt;/font&gt;&lt;/i&gt;&lt;span style=&quot;font-size: 12px;&quot;&gt;&amp;nbsp;&lt;/span&gt;&lt;/font&gt;&lt;/b&gt;&lt;/div&gt;&lt;div&gt;&lt;b&gt;&lt;font style=&quot;font-size: 12px;&quot;&gt;Button&lt;/font&gt;&lt;/b&gt;&lt;/div&gt;" style="edgeLabel;html=1;align=center;verticalAlign=middle;resizable=0;points=[];" parent="JPS8xZOk2hbWX5UggUwU-67" vertex="1" connectable="0">
          <mxGeometry x="0.3645" y="-5" relative="1" as="geometry">
            <mxPoint x="-5" y="134" as="offset" />
          </mxGeometry>
        </mxCell>
        <mxCell id="JPS8xZOk2hbWX5UggUwU-74" value="&lt;b&gt;&amp;lt;&amp;lt;report&amp;gt;&amp;gt;&amp;nbsp;&lt;/b&gt;&lt;div&gt;moodReportPop-up&lt;/div&gt;&lt;div&gt;&lt;br&gt;&lt;/div&gt;&lt;div&gt;&lt;b&gt;&amp;lt;&amp;lt;text&amp;gt;&amp;gt;&lt;/b&gt;&lt;/div&gt;&lt;div&gt;taskDuration&lt;/div&gt;&lt;div&gt;&lt;br&gt;&lt;/div&gt;&lt;div&gt;&lt;b&gt;&amp;lt;&amp;lt;text&amp;gt;&amp;gt;&lt;/b&gt;&amp;nbsp;&lt;/div&gt;&lt;div&gt;Mood Category&lt;/div&gt;&lt;div&gt;&lt;br&gt;&lt;/div&gt;&lt;div&gt;&lt;b&gt;&amp;lt;&amp;lt;text&amp;gt;&amp;gt;&amp;nbsp;&lt;/b&gt;&lt;/div&gt;&lt;div&gt;Motivation Message&amp;nbsp;&amp;nbsp;&lt;/div&gt;&lt;div&gt;&lt;br&gt;&lt;/div&gt;&lt;div&gt;&lt;div&gt;&lt;b&gt;&amp;lt;&amp;lt;button&amp;gt;&amp;gt;&amp;nbsp;&lt;/b&gt;&lt;/div&gt;&lt;div&gt;close&lt;/div&gt;&lt;/div&gt;" style="rounded=0;whiteSpace=wrap;html=1;fillColor=#f8cecc;strokeColor=#b85450;strokeWidth=2;" parent="1" vertex="1">
          <mxGeometry x="40" y="-250" width="170" height="230" as="geometry" />
        </mxCell>
        <mxCell id="4xpPs3tY2ZYNDka_blQr-4" value="&lt;div style=&quot;line-height: 90%;&quot;&gt;&lt;b&gt;&lt;font style=&quot;font-size: 11px; line-height: 90%;&quot;&gt;&amp;lt;&amp;lt;form&amp;gt;&amp;gt;&amp;nbsp;&lt;/font&gt;&lt;/b&gt;&lt;div&gt;&lt;font style=&quot;font-size: 11px; line-height: 90%;&quot;&gt;viewTaskPop-up&lt;/font&gt;&lt;/div&gt;&lt;div&gt;&lt;font style=&quot;font-size: 11px; line-height: 90%;&quot;&gt;&amp;nbsp;&lt;/font&gt;&lt;/div&gt;&lt;div&gt;&lt;font style=&quot;font-size: 11px; line-height: 90%;&quot;&gt;&amp;nbsp; &amp;nbsp;&lt;b&gt; &amp;lt;&amp;lt;text&amp;gt;&amp;gt;&lt;/b&gt;&amp;nbsp;&lt;/font&gt;&lt;/div&gt;&lt;div&gt;&lt;font style=&quot;font-size: 11px; line-height: 90%;&quot;&gt;Task Title: [Task Title]&lt;/font&gt;&lt;/div&gt;&lt;div&gt;&lt;font style=&quot;line-height: 100%; font-size: 11px;&quot;&gt;&lt;br&gt;&lt;/font&gt;&lt;/div&gt;&lt;div&gt;&lt;font style=&quot;font-size: 11px; line-height: 90%;&quot;&gt;&lt;b&gt;    &amp;lt;&amp;lt;text&amp;gt;&amp;gt;&lt;/b&gt;&amp;nbsp;&lt;/font&gt;&lt;/div&gt;&lt;div&gt;&lt;font style=&quot;font-size: 11px; line-height: 90%;&quot;&gt;Deadline&lt;/font&gt;&lt;/div&gt;&lt;div&gt;&lt;font style=&quot;line-height: 100%; font-size: 11px;&quot;&gt;&lt;br&gt;&lt;/font&gt;&lt;/div&gt;&lt;div&gt;&lt;font style=&quot;font-size: 11px; line-height: 90%;&quot;&gt;&lt;b&gt;&lt;span style=&quot;background-color: transparent; color: light-dark(rgb(0, 0, 0), rgb(255, 255, 255));&quot;&gt;&amp;lt;&amp;lt;text&amp;gt;&amp;gt;&lt;/span&gt;&lt;/b&gt;&lt;/font&gt;&lt;/div&gt;&lt;div&gt;&lt;font style=&quot;font-size: 11px; line-height: 90%;&quot;&gt;deadlineCountdown&lt;/font&gt;&lt;/div&gt;&lt;div&gt;&lt;font style=&quot;line-height: 100%; font-size: 11px;&quot;&gt;&lt;br&gt;&lt;/font&gt;&lt;/div&gt;&lt;div&gt;&lt;font style=&quot;font-size: 11px; line-height: 90%;&quot;&gt;&lt;b&gt;&amp;lt;&amp;lt;text&amp;gt;&amp;gt;&lt;/b&gt;&lt;/font&gt;&lt;/div&gt;&lt;div&gt;&lt;font style=&quot;font-size: 11px; line-height: 90%;&quot;&gt;Status&lt;/font&gt;&lt;/div&gt;&lt;div&gt;&lt;font style=&quot;line-height: 100%; font-size: 11px;&quot;&gt;&lt;br&gt;&lt;/font&gt;&lt;/div&gt;&lt;div&gt;&lt;font style=&quot;font-size: 11px; line-height: 90%;&quot;&gt;&lt;b&gt;&amp;lt;&amp;lt;text&amp;gt;&amp;gt;&lt;/b&gt;&lt;/font&gt;&lt;/div&gt;&lt;div&gt;&lt;font style=&quot;font-size: 11px; line-height: 90%;&quot;&gt;&lt;font&gt;&lt;b&gt;&amp;nbsp;&amp;nbsp;&lt;/b&gt;&lt;/font&gt;&lt;span style=&quot;background-color: transparent; color: light-dark(rgb(0, 0, 0), rgb(255, 255, 255));&quot;&gt;Priority&lt;/span&gt;&lt;/font&gt;&lt;/div&gt;&lt;div&gt;&lt;font style=&quot;font-size: 11px;&quot;&gt;&lt;span style=&quot;background-color: transparent; color: light-dark(rgb(0, 0, 0), rgb(255, 255, 255));&quot;&gt;&lt;br&gt;&lt;/span&gt;&lt;/font&gt;&lt;/div&gt;&lt;div&gt;&lt;div&gt;&lt;font style=&quot;font-size: 11px; line-height: 90%;&quot;&gt;&lt;b&gt;&amp;lt;&amp;lt;text&amp;gt;&amp;gt;&lt;/b&gt;&lt;/font&gt;&lt;/div&gt;&lt;/div&gt;&lt;div&gt;&lt;font style=&quot;font-size: 11px; line-height: 90%;&quot;&gt;Energy Scale&lt;/font&gt;&lt;/div&gt;&lt;div&gt;&lt;font style=&quot;line-height: 8px; font-size: 11px;&quot;&gt;&lt;br&gt;&lt;/font&gt;&lt;/div&gt;&lt;div&gt;&lt;font style=&quot;font-size: 11px; line-height: 90%;&quot;&gt;&lt;b&gt;&amp;lt;&amp;lt;text&amp;gt;&amp;gt;&lt;/b&gt;&lt;/font&gt;&lt;/div&gt;&lt;div&gt;&lt;font style=&quot;font-size: 11px; line-height: 90%;&quot;&gt;entryJournal&lt;/font&gt;&lt;/div&gt;&lt;div&gt;&lt;font style=&quot;font-size: 11px; line-height: 90%;&quot;&gt;&lt;br&gt;&lt;/font&gt;&lt;/div&gt;&lt;div&gt;&lt;font style=&quot;font-size: 11px; line-height: 90%;&quot;&gt;&lt;b&gt;&amp;lt;&amp;lt;button&amp;gt;&amp;gt;&lt;/b&gt;&lt;/font&gt;&lt;/div&gt;&lt;div&gt;&lt;font style=&quot;font-size: 11px; line-height: 90%;&quot;&gt;close&lt;/font&gt;&lt;/div&gt;&lt;/div&gt;" style="rounded=0;whiteSpace=wrap;html=1;fillColor=#ffe6cc;strokeColor=#d79b00;strokeWidth=2;align=center;" vertex="1" parent="1">
          <mxGeometry x="390" y="-360" width="140" height="300" as="geometry" />
        </mxCell>
        <mxCell id="4xpPs3tY2ZYNDka_blQr-12" style="edgeStyle=orthogonalEdgeStyle;rounded=0;orthogonalLoop=1;jettySize=auto;html=1;exitX=1;exitY=0.25;exitDx=0;exitDy=0;entryX=-0.056;entryY=0.283;entryDx=0;entryDy=0;entryPerimeter=0;strokeWidth=2;" edge="1" parent="1" source="4xpPs3tY2ZYNDka_blQr-4" target="JPS8xZOk2hbWX5UggUwU-9">
          <mxGeometry relative="1" as="geometry">
            <Array as="points">
              <mxPoint x="570" y="-285" />
              <mxPoint x="570" y="-599" />
            </Array>
          </mxGeometry>
        </mxCell>
        <mxCell id="4xpPs3tY2ZYNDka_blQr-13" value="&lt;font style=&quot;font-size: 12px;&quot;&gt;click&lt;/font&gt;&lt;div&gt;&lt;font style=&quot;font-size: 12px;&quot;&gt;&lt;b&gt;&lt;i&gt;Close&lt;/i&gt;&lt;/b&gt;&amp;nbsp;&lt;/font&gt;&lt;/div&gt;&lt;div&gt;&lt;font style=&quot;font-size: 12px;&quot;&gt;button&lt;/font&gt;&lt;/div&gt;" style="edgeLabel;html=1;align=center;verticalAlign=middle;resizable=0;points=[];" vertex="1" connectable="0" parent="4xpPs3tY2ZYNDka_blQr-12">
          <mxGeometry x="-0.007" y="-4" relative="1" as="geometry">
            <mxPoint x="-14" y="120" as="offset" />
          </mxGeometry>
        </mxCell>
        <mxCell id="4xpPs3tY2ZYNDka_blQr-18" style="edgeStyle=orthogonalEdgeStyle;rounded=0;orthogonalLoop=1;jettySize=auto;html=1;exitX=0.75;exitY=0;exitDx=0;exitDy=0;entryX=0.004;entryY=0.169;entryDx=0;entryDy=0;entryPerimeter=0;strokeWidth=2;" edge="1" parent="1" source="JPS8xZOk2hbWX5UggUwU-74" target="JPS8xZOk2hbWX5UggUwU-9">
          <mxGeometry relative="1" as="geometry">
            <Array as="points">
              <mxPoint x="168" y="-390" />
              <mxPoint x="540" y="-390" />
              <mxPoint x="540" y="-628" />
            </Array>
          </mxGeometry>
        </mxCell>
        <mxCell id="4xpPs3tY2ZYNDka_blQr-19" value="&lt;b&gt;click&lt;/b&gt;&lt;div&gt;&lt;font style=&quot;font-size: 16px;&quot;&gt;&lt;b&gt;&lt;i&gt;close&amp;nbsp;&lt;/i&gt;&lt;/b&gt;&lt;/font&gt;&lt;/div&gt;&lt;div&gt;&lt;b&gt;button&lt;/b&gt;&lt;/div&gt;" style="edgeLabel;html=1;align=center;verticalAlign=middle;resizable=0;points=[];" vertex="1" connectable="0" parent="4xpPs3tY2ZYNDka_blQr-18">
          <mxGeometry x="-0.7558" y="4" relative="1" as="geometry">
            <mxPoint as="offset" />
          </mxGeometry>
        </mxCell>
      </root>
    </mxGraphModel>
  </diagram>
</mxfile>
